<svg version="1.1" id="Layer_1" xmlns="http://www.w3.org/2000/svg" xmlns:xlink="http://www.w3.org/1999/xlink" x="0px" y="0px"
	 width="100%" viewBox="0 0 679 521" enable-background="new 0 0 679 521" xml:space="preserve">
<path fill="#FDFDFD" opacity="1.000000" stroke="none" 
	d="
M420.000000,522.000000 
	C280.000000,522.000000 140.500000,522.000000 1.000000,522.000000 
	C1.000000,348.333344 1.000000,174.666672 1.000000,1.000000 
	C227.333328,1.000000 453.666656,1.000000 680.000000,1.000000 
	C680.000000,174.666672 680.000000,348.333344 680.000000,522.000000 
	C593.500000,522.000000 507.000000,522.000000 420.000000,522.000000 
M113.483757,63.939056 
	C103.193619,66.665977 92.922363,69.467445 82.603508,72.081009 
	C78.786583,73.047752 77.488853,74.928825 77.495644,79.071945 
	C77.640640,167.554916 77.605797,256.038177 77.605904,344.521393 
	C77.605911,346.268005 77.605911,348.014587 77.605911,350.344025 
	C96.251717,343.335602 114.701279,339.062378 133.687820,337.484009 
	C175.887207,333.976013 215.920944,341.260345 253.297623,361.793060 
	C269.845123,370.883423 283.479370,383.602814 297.364136,396.058105 
	C302.746704,400.886475 308.175201,405.663696 314.582184,411.351440 
	C314.582184,408.343689 314.582245,406.741425 314.582184,405.139191 
	C314.580139,321.155151 314.255157,237.168564 314.911011,153.189636 
	C315.013885,140.014847 311.900574,130.956665 301.297424,122.849258 
	C285.993896,111.147850 272.841431,96.679398 255.839020,87.078781 
	C211.512909,62.049530 164.172653,55.355522 113.483757,63.939056 
M465.949951,63.338924 
	C436.773590,68.104721 409.366028,77.725601 385.569580,95.485619 
	C370.651581,106.619385 357.032990,119.483734 342.631531,131.328583 
	C339.562347,133.852905 338.686096,136.476013 338.689911,140.252945 
	C338.779144,228.386871 338.756775,316.520905 338.767883,404.654938 
	C338.768097,406.393555 338.922058,408.132172 339.039978,410.625366 
	C340.814209,409.165558 341.941162,408.280273 343.022400,407.342346 
	C356.979645,395.234955 369.948212,381.696716 385.062561,371.267700 
	C435.144714,336.710449 490.622131,329.569672 549.270142,342.374420 
	C558.120911,344.306854 566.734497,347.325684 575.777954,349.934326 
	C575.777954,330.935730 575.777893,312.284241 575.777893,293.632721 
	C575.777954,222.159195 575.727478,150.685547 575.905640,79.212456 
	C575.916199,74.987915 574.458008,73.280876 570.796875,72.282143 
	C565.822876,70.925262 560.958191,69.163429 555.976318,67.840279 
	C526.591064,60.035839 496.863068,58.532772 465.949951,63.338924 
M305.878113,475.621582 
	C308.105286,477.871277 310.335907,480.117523 312.559052,482.371216 
	C322.288391,492.234436 330.576752,492.191895 340.413757,482.513855 
	C357.156006,466.042328 372.632935,447.911011 391.065308,433.598572 
	C455.663544,383.438812 527.161987,376.077820 602.721680,404.528259 
	C616.578613,409.745789 629.603821,404.373749 629.469849,386.671844 
	C628.899841,311.357666 629.228271,236.036713 629.220886,160.718231 
	C629.220703,158.887421 629.269226,157.040176 629.056091,155.228699 
	C628.208740,148.026947 623.016052,142.562057 615.987061,141.341309 
	C608.938538,140.117172 601.897156,143.351624 599.049744,149.944672 
	C597.655640,153.172729 597.128906,157.007217 597.123169,160.568680 
	C597.015076,227.388672 597.044128,294.208862 597.044495,361.029022 
	C597.044495,363.006775 597.044495,364.984558 597.044495,367.473633 
	C595.129517,367.074402 593.681213,366.875610 592.294189,366.468109 
	C559.586853,356.858795 526.344727,353.876160 492.445129,357.951477 
	C461.686371,361.649323 432.585999,370.426514 405.200745,385.008636 
	C381.364288,397.701080 361.326996,415.074524 342.868347,434.497437 
	C337.638123,440.000946 332.265961,445.369568 326.877167,450.883667 
	C325.253082,449.346069 324.287811,448.442352 323.333557,447.527161 
	C308.796173,433.585083 295.450592,418.074005 279.515533,405.972656 
	C214.603745,356.677795 142.065521,345.229584 63.835041,365.602356 
	C61.369797,366.244324 58.880951,366.795685 55.954552,367.496765 
	C55.954552,364.754089 55.954575,362.770142 55.954548,360.786224 
	C55.953648,293.799438 55.984138,226.812576 55.864040,159.826004 
	C55.857681,156.280884 55.291367,152.383408 53.743458,149.267014 
	C50.387531,142.510559 42.706287,139.709702 35.401951,141.739380 
	C28.218092,143.735565 23.907276,149.898544 23.905256,158.464294 
	C23.887108,235.449112 23.881237,312.433929 23.909380,389.418732 
	C23.914497,403.416107 34.728207,410.673401 47.704857,405.243805 
	C80.452194,391.541931 114.519714,386.216156 149.837601,389.089203 
	C188.907013,392.267456 225.162735,404.157806 256.000214,428.566925 
	C273.671234,442.554199 288.996124,459.505463 305.878113,475.621582 
z"/>
<path fill="#010101" opacity="1.000000" stroke="none" 
	d="
M113.912308,63.878597 
	C164.172653,55.355522 211.512909,62.049530 255.839020,87.078781 
	C272.841431,96.679398 285.993896,111.147850 301.297424,122.849258 
	C311.900574,130.956665 315.013885,140.014847 314.911011,153.189636 
	C314.255157,237.168564 314.580139,321.155151 314.582184,405.139191 
	C314.582245,406.741425 314.582184,408.343689 314.582184,411.351440 
	C308.175201,405.663696 302.746704,400.886475 297.364136,396.058105 
	C283.479370,383.602814 269.845123,370.883423 253.297623,361.793060 
	C215.920944,341.260345 175.887207,333.976013 133.687820,337.484009 
	C114.701279,339.062378 96.251717,343.335602 77.605911,350.344025 
	C77.605911,348.014587 77.605911,346.268005 77.605904,344.521393 
	C77.605797,256.038177 77.640640,167.554916 77.495644,79.071945 
	C77.488853,74.928825 78.786583,73.047752 82.603508,72.081009 
	C92.922363,69.467445 103.193619,66.665977 113.912308,63.878597 
z"/>
<path fill="#010101" opacity="1.000000" stroke="none" 
	d="
M466.385620,63.269184 
	C496.863068,58.532772 526.591064,60.035839 555.976318,67.840279 
	C560.958191,69.163429 565.822876,70.925262 570.796875,72.282143 
	C574.458008,73.280876 575.916199,74.987915 575.905640,79.212456 
	C575.727478,150.685547 575.777954,222.159195 575.777893,293.632721 
	C575.777893,312.284241 575.777954,330.935730 575.777954,349.934326 
	C566.734497,347.325684 558.120911,344.306854 549.270142,342.374420 
	C490.622131,329.569672 435.144714,336.710449 385.062561,371.267700 
	C369.948212,381.696716 356.979645,395.234955 343.022400,407.342346 
	C341.941162,408.280273 340.814209,409.165558 339.039978,410.625366 
	C338.922058,408.132172 338.768097,406.393555 338.767883,404.654938 
	C338.756775,316.520905 338.779144,228.386871 338.689911,140.252945 
	C338.686096,136.476013 339.562347,133.852905 342.631531,131.328583 
	C357.032990,119.483734 370.651581,106.619385 385.569580,95.485619 
	C409.366028,77.725601 436.773590,68.104721 466.385620,63.269184 
z"/>
<path fill="#040404" opacity="1.000000" stroke="none" 
	d="
M305.627686,475.371948 
	C288.996124,459.505463 273.671234,442.554199 256.000214,428.566925 
	C225.162735,404.157806 188.907013,392.267456 149.837601,389.089203 
	C114.519714,386.216156 80.452194,391.541931 47.704857,405.243805 
	C34.728207,410.673401 23.914497,403.416107 23.909380,389.418732 
	C23.881237,312.433929 23.887108,235.449112 23.905256,158.464294 
	C23.907276,149.898544 28.218092,143.735565 35.401951,141.739380 
	C42.706287,139.709702 50.387531,142.510559 53.743458,149.267014 
	C55.291367,152.383408 55.857681,156.280884 55.864040,159.826004 
	C55.984138,226.812576 55.953648,293.799438 55.954548,360.786224 
	C55.954575,362.770142 55.954552,364.754089 55.954552,367.496765 
	C58.880951,366.795685 61.369797,366.244324 63.835041,365.602356 
	C142.065521,345.229584 214.603745,356.677795 279.515533,405.972656 
	C295.450592,418.074005 308.796173,433.585083 323.333557,447.527161 
	C324.287811,448.442352 325.253082,449.346069 326.877167,450.883667 
	C332.265961,445.369568 337.638123,440.000946 342.868347,434.497437 
	C361.326996,415.074524 381.364288,397.701080 405.200745,385.008636 
	C432.585999,370.426514 461.686371,361.649323 492.445129,357.951477 
	C526.344727,353.876160 559.586853,356.858795 592.294189,366.468109 
	C593.681213,366.875610 595.129517,367.074402 597.044495,367.473633 
	C597.044495,364.984558 597.044495,363.006775 597.044495,361.029022 
	C597.044128,294.208862 597.015076,227.388672 597.123169,160.568680 
	C597.128906,157.007217 597.655640,153.172729 599.049744,149.944672 
	C601.897156,143.351624 608.938538,140.117172 615.987061,141.341309 
	C623.016052,142.562057 628.208740,148.026947 629.056091,155.228699 
	C629.269226,157.040176 629.220703,158.887421 629.220886,160.718231 
	C629.228271,236.036713 628.899841,311.357666 629.469849,386.671844 
	C629.603821,404.373749 616.578613,409.745789 602.721680,404.528259 
	C527.161987,376.077820 455.663544,383.438812 391.065308,433.598572 
	C372.632935,447.911011 357.156006,466.042328 340.413757,482.513855 
	C330.576752,492.191895 322.288391,492.234436 312.559052,482.371216 
	C310.335907,480.117523 308.105286,477.871277 305.627686,475.371948 
z"/>
</svg>